STARTFONT 2.1
FONT -sun-timmons-bold-i-normal--17-170-75-75-p-94-adobe-fontspecific
SIZE 17 75 75
FONTBOUNDINGBOX 23 20 -3 -4

STARTPROPERTIES 28
FOUNDRY "sun"
FAMILY_NAME "timmons"
WEIGHT_NAME "bold"
SLANT "i"
SETWIDTH_NAME "normal"
ADD_STYLE_NAME ""
PIXEL_SIZE 18
POINT_SIZE 170
RESOLUTION_X 75
RESOLUTION_Y 75
SPACING "p"
AVERAGE_WIDTH 94
CHARSET_REGISTRY "adobe"
CHARSET_ENCODING "fontspecific"
COPYRIGHT "© 1999 Sun Microsystems, Inc."
RAW_PIXELSIZE 1000
RAW_POINTSIZE 964
RAW_ASCENT 932
RAW_DESCENT 200
RAW_AVERAGE_WIDTH 5346
FACE_NAME "TimmonsBoldItalicdensedN5"
_XMBDFED_INFO "Edited with xmbdfed 2.4."
WEIGHT 10
X_HEIGHT -1
QUAD_WIDTH 9
DEFAULT_CHAR 4
FONT_DESCENT 4
FONT_ASCENT 16
ENDPROPERTIES

CHARS 206

STARTCHAR char32
ENCODING 32
SWIDTH 25 0
DWIDTH 5 0
BBX 0 0 0 0
BITMAP
ENDCHAR

STARTCHAR char33
ENCODING 33
SWIDTH 25 0
DWIDTH 5 0
BBX 5 13 2 0
BITMAP
08
18
38
38
30
30
20
20
20
20
C0
C0
C0
ENDCHAR

STARTCHAR char34
ENCODING 34
SWIDTH 45 0
DWIDTH 9 0
BBX 8 6 2 7
BITMAP
11
33
33
22
66
44
ENDCHAR

STARTCHAR char35
ENCODING 35
SWIDTH 50 0
DWIDTH 10 0
BBX 9 13 0 0
BITMAP
1100
1300
1200
1200
7F80
3200
3200
2200
FF00
2400
2400
2400
6400
ENDCHAR

STARTCHAR char36
ENCODING 36
SWIDTH 50 0
DWIDTH 10 0
BBX 10 17 0 -2
BITMAP
0080
0080
0100
1F80
3140
3240
3A00
1C00
1E00
0700
4780
4980
4980
CB00
7E00
1000
1000
ENDCHAR

STARTCHAR char37
ENCODING 37
SWIDTH 19 0
DWIDTH 14 0
BBX 13 12 1 0
BITMAP
3C40
6C40
EC80
EC80
C970
CAD8
D2D8
7598
0598
09B0
09B0
10E0
ENDCHAR

STARTCHAR char38
ENCODING 38
SWIDTH 19 0
DWIDTH 14 0
BBX 12 13 1 0
BITMAP
0380
06C0
0CC0
0D80
0D00
0E00
1EF0
2E40
4740
C780
E380
F7F0
79E0
ENDCHAR

STARTCHAR char39
ENCODING 39
SWIDTH 20 0
DWIDTH 4 0
BBX 4 6 3 7
BITMAP
20
40
40
C0
C0
40
ENDCHAR

STARTCHAR char40
ENCODING 40
SWIDTH 30 0
DWIDTH 6 0
BBX 7 15 2 -2
BITMAP
02
0C
18
30
30
70
60
E0
C0
C0
C0
C0
40
40
20
ENDCHAR

STARTCHAR char41
ENCODING 41
SWIDTH 30 0
DWIDTH 6 0
BBX 7 15 -1 -2
BITMAP
04
04
04
06
06
06
06
0E
0E
0C
1C
18
30
60
C0
ENDCHAR

STARTCHAR char42
ENCODING 42
SWIDTH 45 0
DWIDTH 9 0
BBX 7 7 3 6
BITMAP
08
58
76
1E
78
58
08
ENDCHAR

STARTCHAR char43
ENCODING 43
SWIDTH 9 0
DWIDTH 12 0
BBX 11 10 1 0
BITMAP
0C00
0C00
0C00
0C00
FFE0
0C00
0C00
0C00
0C00
0C00
ENDCHAR

STARTCHAR char44
ENCODING 44
SWIDTH 25 0
DWIDTH 5 0
BBX 3 6 0 -3
BITMAP
20
60
60
20
40
80
ENDCHAR

STARTCHAR char45
ENCODING 45
SWIDTH 30 0
DWIDTH 6 0
BBX 6 2 1 4
BITMAP
7C
F8
ENDCHAR

STARTCHAR char46
ENCODING 46
SWIDTH 25 0
DWIDTH 5 0
BBX 2 3 1 0
BITMAP
C0
C0
C0
ENDCHAR

STARTCHAR char47
ENCODING 47
SWIDTH 40 0
DWIDTH 8 0
BBX 7 13 2 0
BITMAP
04
04
0C
08
18
10
30
20
20
60
40
C0
80
ENDCHAR

STARTCHAR char48
ENCODING 48
SWIDTH 45 0
DWIDTH 9 0
BBX 9 12 1 0
BITMAP
0F00
1980
3180
7180
6380
6380
E300
E700
C600
C600
4C00
7800
ENDCHAR

STARTCHAR char49
ENCODING 49
SWIDTH 45 0
DWIDTH 9 0
BBX 7 13 1 0
BITMAP
02
3E
0E
0C
0C
1C
1C
18
18
38
30
30
FC
ENDCHAR

STARTCHAR char50
ENCODING 50
SWIDTH 45 0
DWIDTH 9 0
BBX 8 12 1 0
BITMAP
3E
7F
03
03
06
06
0C
18
30
66
7E
FC
ENDCHAR

STARTCHAR char51
ENCODING 51
SWIDTH 45 0
DWIDTH 9 0
BBX 8 12 1 0
BITMAP
1E
27
03
06
1C
3C
0E
06
06
06
CC
F8
ENDCHAR

STARTCHAR char52
ENCODING 52
SWIDTH 45 0
DWIDTH 9 0
BBX 8 13 1 0
BITMAP
01
03
07
0F
16
26
4E
4C
FF
FE
18
18
18
ENDCHAR

STARTCHAR char53
ENCODING 53
SWIDTH 45 0
DWIDTH 9 0
BBX 8 12 1 0
BITMAP
1F
1F
20
38
7C
0E
06
06
06
04
CC
F0
ENDCHAR

STARTCHAR char54
ENCODING 54
SWIDTH 45 0
DWIDTH 9 0
BBX 9 13 1 0
BITMAP
0180
0600
1C00
3800
3000
7E00
6700
6300
E300
C700
C600
4E00
3C00
ENDCHAR

STARTCHAR char55
ENCODING 55
SWIDTH 45 0
DWIDTH 9 0
BBX 8 12 2 0
BITMAP
3F
7F
82
04
04
08
18
10
20
20
40
C0
ENDCHAR

STARTCHAR char56
ENCODING 56
SWIDTH 45 0
DWIDTH 9 0
BBX 8 12 1 0
BITMAP
1E
33
33
3B
3E
1C
6E
46
C6
C6
CC
78
ENDCHAR

STARTCHAR char57
ENCODING 57
SWIDTH 45 0
DWIDTH 9 0
BBX 8 12 2 0
BITMAP
3E
63
E3
C3
C7
C7
7E
0E
1C
18
30
C0
ENDCHAR

STARTCHAR char58
ENCODING 58
SWIDTH 25 0
DWIDTH 5 0
BBX 4 8 1 0
BITMAP
30
30
30
00
00
40
C0
40
ENDCHAR

STARTCHAR char59
ENCODING 59
SWIDTH 25 0
DWIDTH 5 0
BBX 4 11 1 -3
BITMAP
30
30
30
00
00
40
40
40
40
C0
80
ENDCHAR

STARTCHAR char60
ENCODING 60
SWIDTH 50 0
DWIDTH 10 0
BBX 9 9 0 0
BITMAP
0080
0300
0C00
7000
C000
7000
1C00
0300
0080
ENDCHAR

STARTCHAR char61
ENCODING 61
SWIDTH 9 0
DWIDTH 12 0
BBX 12 4 0 3
BITMAP
FFF0
0000
0000
FFF0
ENDCHAR

STARTCHAR char62
ENCODING 62
SWIDTH 50 0
DWIDTH 10 0
BBX 9 9 0 0
BITMAP
C000
7000
1C00
0300
0080
0300
0C00
7000
C000
ENDCHAR

STARTCHAR char63
ENCODING 63
SWIDTH 45 0
DWIDTH 9 0
BBX 6 12 3 0
BITMAP
3C
6C
6C
18
18
30
60
40
40
C0
C0
C0
ENDCHAR

STARTCHAR char64
ENCODING 64
SWIDTH 44 0
DWIDTH 19 0
BBX 14 13 2 0
BITMAP
07C0
1860
3018
67A8
6CCC
D84C
D84C
D8C8
D990
6EE0
3018
1830
0FC0
ENDCHAR

STARTCHAR char65
ENCODING 65
SWIDTH 9 0
DWIDTH 12 0
BBX 12 12 -1 0
BITMAP
0010
0030
0070
00A0
0160
0260
0460
07E0
0860
1060
30E0
79F0
ENDCHAR

STARTCHAR char66
ENCODING 66
SWIDTH 4 0
DWIDTH 11 0
BBX 12 12 -1 0
BITMAP
07F0
0630
0E30
0E30
0E60
0F80
1CC0
1C60
1860
38E0
39C0
FF80
ENDCHAR

STARTCHAR char67
ENCODING 67
SWIDTH 14 0
DWIDTH 13 0
BBX 12 13 2 0
BITMAP
0010
0FF0
1820
3020
7000
E000
E000
C000
C000
C000
6040
7180
1E00
ENDCHAR

STARTCHAR char68
ENCODING 68
SWIDTH 14 0
DWIDTH 13 0
BBX 13 12 -1 0
BITMAP
07E0
0730
0E18
0E18
0E18
0C18
1C18
1C30
1C30
3860
38C0
FF80
ENDCHAR

STARTCHAR char69
ENCODING 69
SWIDTH 4 0
DWIDTH 11 0
BBX 13 12 -1 0
BITMAP
0FF8
0718
0608
0E20
0E40
0FC0
1C40
1C40
1C00
1820
38E0
7FC0
ENDCHAR

STARTCHAR char70
ENCODING 70
SWIDTH 50 0
DWIDTH 10 0
BBX 12 12 0 0
BITMAP
1FE0
0E20
0E20
0C80
1C80
1F00
1900
3900
3800
3000
7000
FC00
ENDCHAR

STARTCHAR char71
ENCODING 71
SWIDTH 19 0
DWIDTH 14 0
BBX 13 12 2 0
BITMAP
0FF8
3810
3010
7000
E000
E000
C3F0
C1C0
C1C0
61C0
7180
1F00
ENDCHAR

STARTCHAR char72
ENCODING 72
SWIDTH 19 0
DWIDTH 14 0
BBX 16 12 -1 0
BITMAP
07CF
060E
0E0C
0E1C
0E1C
0FF8
1C38
1C38
1838
3830
3870
FCF8
ENDCHAR

STARTCHAR char73
ENCODING 73
SWIDTH 30 0
DWIDTH 6 0
BBX 8 12 1 0
BITMAP
1F
1C
1C
38
38
38
30
70
70
60
E0
30
ENDCHAR

STARTCHAR char74
ENCODING 74
SWIDTH 40 0
DWIDTH 8 0
BBX 10 12 0 0
BITMAP
0FC0
0300
0700
0700
0700
0600
0E00
0E00
0C00
DC00
D800
7000
ENDCHAR

STARTCHAR char75
ENCODING 75
SWIDTH 9 0
DWIDTH 12 0
BBX 15 13 -1 0
BITMAP
083E
0718
0730
0640
0E80
0F80
0F80
1D80
1DC0
1DC0
18C0
38E0
3CF0
ENDCHAR

STARTCHAR char76
ENCODING 76
SWIDTH 4 0
DWIDTH 11 0
BBX 12 12 -1 0
BITMAP
0FC0
0700
0600
0E00
0E00
0C00
1C00
1C00
1C20
1820
38E0
7FC0
ENDCHAR

STARTCHAR char77
ENCODING 77
SWIDTH 29 0
DWIDTH 16 0
BBX 19 13 -1 0
BITMAP
088100
1F03E0
070780
0B0780
0B0B00
0B1700
131700
13A700
13C600
13CE00
238E00
230E00
721F00
ENDCHAR

STARTCHAR char78
ENCODING 78
SWIDTH 14 0
DWIDTH 13 0
BBX 16 12 -1 0
BITMAP
0F0F
0704
0B84
0B88
09C8
09C8
10E8
10F0
1070
2070
2020
F020
ENDCHAR

STARTCHAR char79
ENCODING 79
SWIDTH 19 0
DWIDTH 14 0
BBX 11 12 2 0
BITMAP
0FC0
1860
3060
7060
6060
E060
C0C0
C0C0
C080
C180
6300
3C00
ENDCHAR

STARTCHAR char80
ENCODING 80
SWIDTH 4 0
DWIDTH 11 0
BBX 12 12 -1 0
BITMAP
07E0
0730
0630
0E30
0E60
0FC0
1C00
1C00
1C00
1800
3800
7C00
ENDCHAR

STARTCHAR char81
ENCODING 81
SWIDTH 19 0
DWIDTH 14 0
BBX 11 15 2 -3
BITMAP
0FC0
1860
3060
7060
6060
E060
C0C0
C0C0
C080
C180
6300
3C00
1020
7FC0
5F80
ENDCHAR

STARTCHAR char82
ENCODING 82
SWIDTH 9 0
DWIDTH 12 0
BBX 12 13 -1 0
BITMAP
0FC0
0760
0630
0E30
0E30
0E60
0F80
1D80
1D80
19C0
38C0
38C0
7CF0
ENDCHAR

STARTCHAR char83
ENCODING 83
SWIDTH 50 0
DWIDTH 10 0
BBX 11 12 0 0
BITMAP
0FE0
1C60
1820
1C20
1E00
0F00
0700
4380
4180
4180
6300
FE00
ENDCHAR

STARTCHAR char84
ENCODING 84
SWIDTH 50 0
DWIDTH 10 0
BBX 11 12 1 0
BITMAP
3FE0
6660
4E20
0E00
0C00
1C00
1C00
1C00
1800
3800
3800
FC00
ENDCHAR

STARTCHAR char85
ENCODING 85
SWIDTH 14 0
DWIDTH 13 0
BBX 13 12 2 0
BITMAP
3E38
3820
3020
7020
7040
7040
6040
E080
E080
C100
E300
3E00
ENDCHAR

STARTCHAR char86
ENCODING 86
SWIDTH 4 0
DWIDTH 11 0
BBX 12 12 3 0
BITMAP
78F0
6080
6100
6200
6200
6400
7800
7800
6000
E000
C000
C000
ENDCHAR

STARTCHAR char87
ENCODING 87
SWIDTH 34 0
DWIDTH 17 0
BBX 17 13 3 0
BITMAP
040980
7BF600
618400
618800
638800
6F9000
6BA000
6BA000
F3C000
E38000
C30000
C30000
820000
ENDCHAR

STARTCHAR char88
ENCODING 88
SWIDTH 9 0
DWIDTH 12 0
BBX 15 13 -1 0
BITMAP
0002
1F9C
0710
0720
0340
0380
0380
0380
05C0
09C0
18C0
30E0
79F0
ENDCHAR

STARTCHAR char89
ENCODING 89
SWIDTH 9 0
DWIDTH 12 0
BBX 13 12 2 0
BITMAP
3CF8
3840
1840
1880
1D00
1E00
0C00
1C00
1C00
1800
3800
FE00
ENDCHAR

STARTCHAR char90
ENCODING 90
SWIDTH 4 0
DWIDTH 11 0
BBX 14 12 -1 0
BITMAP
0FFC
0838
1070
00E0
01C0
0380
0700
0F00
1E10
3C20
7860
7FE0
ENDCHAR

STARTCHAR char91
ENCODING 91
SWIDTH 25 0
DWIDTH 5 0
BBX 8 15 0 -2
BITMAP
0F
0C
0C
18
18
18
30
30
30
70
60
60
E0
C0
F0
ENDCHAR

STARTCHAR char92
ENCODING 92
SWIDTH 25 0
DWIDTH 5 0
BBX 5 13 0 0
BITMAP
80
80
40
40
40
60
20
20
30
10
10
18
08
ENDCHAR

STARTCHAR char93
ENCODING 93
SWIDTH 25 0
DWIDTH 5 0
BBX 8 15 -1 -2
BITMAP
07
07
06
06
06
0C
0C
0C
1C
18
18
38
30
30
F0
ENDCHAR

STARTCHAR char94
ENCODING 94
SWIDTH 0 0
DWIDTH 0 0
BBX 6 2 0 14
BITMAP
38
4C
ENDCHAR

STARTCHAR char95
ENCODING 95
SWIDTH 4 0
DWIDTH 11 0
BBX 10 1 0 -2
BITMAP
FFC0
ENDCHAR

STARTCHAR char96
ENCODING 96
SWIDTH 0 0
DWIDTH 0 0
BBX 3 3 0 9
BITMAP
C0
60
20
ENDCHAR

STARTCHAR char97
ENCODING 97
SWIDTH 50 0
DWIDTH 10 0
BBX 8 8 1 0
BITMAP
1F
27
67
C6
CE
CE
FF
6E
ENDCHAR

STARTCHAR char98
ENCODING 98
SWIDTH 45 0
DWIDTH 9 0
BBX 7 13 1 0
BITMAP
18
38
30
30
30
3E
66
66
66
E6
CC
C8
F0
ENDCHAR

STARTCHAR char99
ENCODING 99
SWIDTH 40 0
DWIDTH 8 0
BBX 7 8 1 0
BITMAP
3E
66
60
C0
C0
C4
E4
78
ENDCHAR

STARTCHAR char100
ENCODING 100
SWIDTH 50 0
DWIDTH 10 0
BBX 10 13 1 0
BITMAP
00C0
0180
0180
0380
0300
1F00
2700
6700
4600
CE00
CE00
FD00
EE00
ENDCHAR

STARTCHAR char101
ENCODING 101
SWIDTH 40 0
DWIDTH 8 0
BBX 7 8 1 0
BITMAP
3E
66
64
F8
C0
C4
E4
78
ENDCHAR

STARTCHAR char102
ENCODING 102
SWIDTH 30 0
DWIDTH 6 0
BBX 12 16 -3 -3
BITMAP
0070
00D0
0180
0180
0300
0FC0
0700
0700
0600
0600
0E00
0C00
0C00
1800
D800
E000
ENDCHAR

STARTCHAR char103
ENCODING 103
SWIDTH 40 0
DWIDTH 8 0
BBX 10 11 -1 -3
BITMAP
1F80
3B80
3380
3300
3E00
3000
3E00
7F00
C300
C200
7C00
ENDCHAR

STARTCHAR char104
ENCODING 104
SWIDTH 50 0
DWIDTH 10 0
BBX 8 13 1 0
BITMAP
08
38
38
30
32
77
7B
73
67
E6
C6
CF
C6
ENDCHAR

STARTCHAR char105
ENCODING 105
SWIDTH 25 0
DWIDTH 5 0
BBX 5 13 1 0
BITMAP
18
18
18
00
10
70
30
60
60
60
E0
D0
E0
ENDCHAR

STARTCHAR char106
ENCODING 106
SWIDTH 25 0
DWIDTH 5 0
BBX 9 16 -3 -3
BITMAP
0100
0180
0100
0000
0100
0700
0600
0600
0600
0C00
0C00
0C00
1C00
1800
D800
F000
ENDCHAR

STARTCHAR char107
ENCODING 107
SWIDTH 50 0
DWIDTH 10 0
BBX 10 13 0 0
BITMAP
0C00
1C00
1C00
1800
1800
39C0
3300
3600
7E00
7600
6600
6780
6300
ENDCHAR

STARTCHAR char108
ENCODING 108
SWIDTH 25 0
DWIDTH 5 0
BBX 6 13 1 0
BITMAP
18
38
18
38
30
30
70
60
60
60
E0
D0
E0
ENDCHAR

STARTCHAR char109
ENCODING 109
SWIDTH 19 0
DWIDTH 14 0
BBX 14 8 0 0
BITMAP
739C
3DEC
3B98
3398
7318
6730
673C
6630
ENDCHAR

STARTCHAR char110
ENCODING 110
SWIDTH 50 0
DWIDTH 10 0
BBX 8 8 1 0
BITMAP
E7
79
73
63
E2
E6
C7
C6
ENDCHAR

STARTCHAR char111
ENCODING 111
SWIDTH 45 0
DWIDTH 9 0
BBX 8 8 1 0
BITMAP
3E
63
63
E3
C7
C6
CC
78
ENDCHAR

STARTCHAR char112
ENCODING 112
SWIDTH 45 0
DWIDTH 9 0
BBX 11 11 -2 -3
BITMAP
0DE0
0E60
0C60
1C60
1CC0
18C0
1980
3F00
3000
3000
3800
ENDCHAR

STARTCHAR char113
ENCODING 113
SWIDTH 45 0
DWIDTH 9 0
BBX 8 11 1 -3
BITMAP
1F
23
67
C6
CE
CE
FE
EC
1C
1C
3C
ENDCHAR

STARTCHAR char114
ENCODING 114
SWIDTH 35 0
DWIDTH 7 0
BBX 7 8 1 0
BITMAP
66
3E
78
70
60
E0
E0
C0
ENDCHAR

STARTCHAR char115
ENCODING 115
SWIDTH 35 0
DWIDTH 7 0
BBX 7 8 0 0
BITMAP
3E
32
38
18
1C
4C
4C
B8
ENDCHAR

STARTCHAR char116
ENCODING 116
SWIDTH 30 0
DWIDTH 6 0
BBX 6 11 1 0
BITMAP
08
18
30
7C
70
70
60
E0
E0
D0
E0
ENDCHAR

STARTCHAR char117
ENCODING 117
SWIDTH 50 0
DWIDTH 10 0
BBX 9 8 1 0
BITMAP
6300
3380
6300
6700
6600
CE00
F700
E600
ENDCHAR

STARTCHAR char118
ENCODING 118
SWIDTH 35 0
DWIDTH 7 0
BBX 8 8 0 0
BITMAP
73
31
31
32
3C
38
30
20
ENDCHAR

STARTCHAR char119
ENCODING 119
SWIDTH 4 0
DWIDTH 11 0
BBX 11 8 0 0
BITMAP
F160
3320
3720
3740
3B40
3380
2300
2200
ENDCHAR

STARTCHAR char120
ENCODING 120
SWIDTH 45 0
DWIDTH 9 0
BBX 10 8 0 0
BITMAP
3980
1B80
1C00
0C00
0C00
1E00
EF80
C600
ENDCHAR

STARTCHAR char121
ENCODING 121
SWIDTH 40 0
DWIDTH 8 0
BBX 10 11 -2 -3
BITMAP
38C0
0C40
0C40
0C80
0C80
0D00
0E00
0C00
0800
7800
6000
ENDCHAR

STARTCHAR char122
ENCODING 122
SWIDTH 35 0
DWIDTH 7 0
BBX 8 9 0 -1
BITMAP
3F
3E
44
08
10
20
66
F6
1C
ENDCHAR

STARTCHAR char123
ENCODING 123
SWIDTH 30 0
DWIDTH 6 0
BBX 4 15 1 -3
BITMAP
70
60
60
60
60
60
40
80
40
60
60
60
60
60
30
ENDCHAR

STARTCHAR char124
ENCODING 124
SWIDTH 25 0
DWIDTH 5 0
BBX 2 13 1 0
BITMAP
C0
C0
C0
C0
C0
C0
C0
C0
C0
C0
C0
C0
C0
ENDCHAR

STARTCHAR char125
ENCODING 125
SWIDTH 30 0
DWIDTH 6 0
BBX 4 15 1 -3
BITMAP
C0
60
60
60
60
60
20
10
60
60
60
60
60
60
C0
ENDCHAR

STARTCHAR char126
ENCODING 126
SWIDTH 0 0
DWIDTH 0 0
BBX 7 2 0 14
BITMAP
72
9C
ENDCHAR

STARTCHAR char128
ENCODING 128
SWIDTH 45 0
DWIDTH 9 0
BBX 11 12 0 0
BITMAP
03C0
0E40
1C40
1800
3800
7F00
FF00
7000
6000
6100
6300
3C00
ENDCHAR

STARTCHAR char130
ENCODING 130
SWIDTH 20 0
DWIDTH 4 0
BBX 3 6 0 -3
BITMAP
20
60
60
20
40
80
ENDCHAR

STARTCHAR char131
ENCODING 131
SWIDTH 0 0
DWIDTH 0 0
BBX 6 2 0 14
BITMAP
38
4C
ENDCHAR

STARTCHAR char132
ENCODING 132
SWIDTH 45 0
DWIDTH 9 0
BBX 7 6 0 -3
BITMAP
22
66
66
22
CC
88
ENDCHAR

STARTCHAR char133
ENCODING 133
SWIDTH 44 0
DWIDTH 19 0
BBX 14 2 2 0
BITMAP
C30C
C30C
ENDCHAR

STARTCHAR char134
ENCODING 134
SWIDTH 40 0
DWIDTH 8 0
BBX 8 15 2 -3
BITMAP
0C
0C
08
EE
F6
38
30
30
20
20
40
40
40
80
80
ENDCHAR

STARTCHAR char136
ENCODING 136
SWIDTH 0 0
DWIDTH 0 0
BBX 5 3 -1 9
BITMAP
38
F8
88
ENDCHAR

STARTCHAR char137
ENCODING 137
SWIDTH 39 0
DWIDTH 18 0
BBX 0 0 0 0
BITMAP
ENDCHAR

STARTCHAR char138
ENCODING 138
SWIDTH 39 0
DWIDTH 18 0
BBX 0 0 0 0
BITMAP
ENDCHAR

STARTCHAR char139
ENCODING 139
SWIDTH 30 0
DWIDTH 6 0
BBX 2 6 2 2
BITMAP
40
40
80
80
C0
40
ENDCHAR

STARTCHAR char140
ENCODING 140
SWIDTH 39 0
DWIDTH 18 0
BBX 17 13 2 0
BITMAP
01E000
0FFF80
18E180
30E080
70E400
60E400
E0FC00
E1C400
C1C400
C18000
C38200
678E00
3FFC00
ENDCHAR

STARTCHAR char141
ENCODING 141
SWIDTH 39 0
DWIDTH 18 0
BBX 0 0 0 0
BITMAP
ENDCHAR

STARTCHAR char143
ENCODING 143
SWIDTH 39 0
DWIDTH 18 0
BBX 0 0 0 0
BITMAP
ENDCHAR

STARTCHAR char145
ENCODING 145
SWIDTH 25 0
DWIDTH 5 0
BBX 3 5 4 7
BITMAP
40
40
C0
C0
40
ENDCHAR

STARTCHAR char146
ENCODING 146
SWIDTH 25 0
DWIDTH 5 0
BBX 3 5 3 7
BITMAP
60
60
40
C0
80
ENDCHAR

STARTCHAR char147
ENCODING 147
SWIDTH 45 0
DWIDTH 9 0
BBX 8 6 3 7
BITMAP
22
44
88
CC
CC
44
ENDCHAR

STARTCHAR char148
ENCODING 148
SWIDTH 45 0
DWIDTH 9 0
BBX 7 5 3 7
BITMAP
66
66
44
CC
88
ENDCHAR

STARTCHAR char149
ENCODING 149
SWIDTH 30 0
DWIDTH 6 0
BBX 5 5 0 3
BITMAP
70
F8
F8
F8
70
ENDCHAR

STARTCHAR char150
ENCODING 150
SWIDTH 45 0
DWIDTH 9 0
BBX 8 2 1 4
BITMAP
FF
FF
ENDCHAR

STARTCHAR char151
ENCODING 151
SWIDTH 9 0
DWIDTH 12 0
BBX 12 1 0 5
BITMAP
FFF0
ENDCHAR

STARTCHAR char152
ENCODING 152
SWIDTH 0 0
DWIDTH 0 0
BBX 7 2 -1 10
BITMAP
74
B8
ENDCHAR

STARTCHAR char153
ENCODING 153
SWIDTH 29 0
DWIDTH 16 0
BBX 13 7 1 5
BITMAP
FE18
DA18
4328
4328
42B8
42D8
6658
ENDCHAR

STARTCHAR char155
ENCODING 155
SWIDTH 30 0
DWIDTH 6 0
BBX 2 6 2 2
BITMAP
80
80
40
40
C0
80
ENDCHAR

STARTCHAR char156
ENCODING 156
SWIDTH 14 0
DWIDTH 13 0
BBX 12 8 1 0
BITMAP
3FE0
6730
6670
C7E0
C600
CE20
CFC0
7780
ENDCHAR

STARTCHAR char157
ENCODING 157
SWIDTH 39 0
DWIDTH 18 0
BBX 0 0 0 0
BITMAP
ENDCHAR

STARTCHAR char159
ENCODING 159
SWIDTH 9 0
DWIDTH 12 0
BBX 13 16 2 0
BITMAP
0CC0
0CC0
0CC0
0000
3CF8
3840
1840
1C80
0D00
0E00
0C00
0C00
1C00
1C00
3800
FC00
ENDCHAR

STARTCHAR char160
ENCODING 160
SWIDTH 25 0
DWIDTH 5 0
BBX 0 0 0 0
BITMAP
ENDCHAR

STARTCHAR char161
ENCODING 161
SWIDTH 25 0
DWIDTH 5 0
BBX 5 12 1 0
BITMAP
18
18
18
20
20
20
60
60
E0
C0
C0
80
ENDCHAR

STARTCHAR char162
ENCODING 162
SWIDTH 40 0
DWIDTH 8 0
BBX 7 12 1 -2
BITMAP
04
04
1E
6E
70
D0
D0
D4
E4
78
20
40
ENDCHAR

STARTCHAR char163
ENCODING 163
SWIDTH 9 0
DWIDTH 12 0
BBX 12 12 0 0
BITMAP
03F0
0330
0700
0600
0600
1F80
0600
0C00
0C00
7C00
DFC0
7780
ENDCHAR

STARTCHAR char164
ENCODING 164
SWIDTH 0 0
DWIDTH 0 0
BBX 5 2 2 14
BITMAP
70
40
ENDCHAR

STARTCHAR char165
ENCODING 165
SWIDTH 0 0
DWIDTH 0 0
BBX 6 2 1 14
BITMAP
CC
70
ENDCHAR

STARTCHAR char166
ENCODING 166
SWIDTH 39 0
DWIDTH 18 0
BBX 0 0 0 0
BITMAP
ENDCHAR

STARTCHAR char167
ENCODING 167
SWIDTH 45 0
DWIDTH 9 0
BBX 9 16 1 -3
BITMAP
0F00
1980
1800
1C00
1E00
3E00
6F00
6700
2300
3E00
3000
1800
1800
5800
D800
7000
ENDCHAR

STARTCHAR char168
ENCODING 168
SWIDTH 0 0
DWIDTH 0 0
BBX 5 3 0 10
BITMAP
D8
D8
D8
ENDCHAR

STARTCHAR char169
ENCODING 169
SWIDTH 19 0
DWIDTH 14 0
BBX 13 12 0 0
BITMAP
0700
18C0
2020
4790
4890
D818
D818
D818
48D0
4710
3060
0F80
ENDCHAR

STARTCHAR char170
ENCODING 170
SWIDTH 0 0
DWIDTH 0 0
BBX 7 3 0 13
BITMAP
C6
C6
C6
ENDCHAR

STARTCHAR char171
ENCODING 171
SWIDTH 50 0
DWIDTH 10 0
BBX 9 8 1 1
BITMAP
1980
3100
2200
6600
CC00
4600
6600
2200
ENDCHAR

STARTCHAR char172
ENCODING 172
SWIDTH 14 0
DWIDTH 13 0
BBX 12 5 0 0
BITMAP
FFF0
0030
0030
0030
0030
ENDCHAR

STARTCHAR char174
ENCODING 174
SWIDTH 19 0
DWIDTH 14 0
BBX 13 12 0 0
BITMAP
0700
18C0
2020
4F90
4D90
CD98
CE18
CF18
4D90
4DD0
3060
0F80
ENDCHAR

STARTCHAR char175
ENCODING 175
SWIDTH 39 0
DWIDTH 18 0
BBX 0 0 0 0
BITMAP
ENDCHAR

STARTCHAR char176
ENCODING 176
SWIDTH 25 0
DWIDTH 5 0
BBX 6 6 2 6
BITMAP
30
4C
CC
CC
48
30
ENDCHAR

STARTCHAR char177
ENCODING 177
SWIDTH 50 0
DWIDTH 10 0
BBX 9 11 0 0
BITMAP
0C00
0C00
0C00
0C00
FF80
0C00
0C00
0C00
0C00
0000
FF80
ENDCHAR

STARTCHAR char179
ENCODING 179
SWIDTH 39 0
DWIDTH 18 0
BBX 0 0 0 0
BITMAP
ENDCHAR

STARTCHAR char180
ENCODING 180
SWIDTH 0 0
DWIDTH 0 0
BBX 4 3 1 10
BITMAP
70
60
C0
ENDCHAR

STARTCHAR char182
ENCODING 182
SWIDTH 14 0
DWIDTH 13 0
BBX 8 15 2 -3
BITMAP
7F
F6
F6
F6
F6
76
36
36
36
36
36
36
36
36
36
ENDCHAR

STARTCHAR char183
ENCODING 183
SWIDTH 15 0
DWIDTH 3 0
BBX 2 2 2 4
BITMAP
C0
C0
ENDCHAR

STARTCHAR char184
ENCODING 184
SWIDTH 0 0
DWIDTH 0 0
BBX 4 4 -3 -4
BITMAP
20
70
30
E0
ENDCHAR

STARTCHAR char186
ENCODING 186
SWIDTH 0 0
DWIDTH 0 0
BBX 7 2 0 14
BITMAP
72
9C
ENDCHAR

STARTCHAR char187
ENCODING 187
SWIDTH 50 0
DWIDTH 10 0
BBX 8 8 1 1
BITMAP
44
66
66
22
67
66
CC
88
ENDCHAR

STARTCHAR char189
ENCODING 189
SWIDTH 39 0
DWIDTH 18 0
BBX 0 0 0 0
BITMAP
ENDCHAR

STARTCHAR char191
ENCODING 191
SWIDTH 45 0
DWIDTH 9 0
BBX 6 12 1 0
BITMAP
0C
0C
0C
08
08
10
30
60
C8
D8
D8
70
ENDCHAR

STARTCHAR char192
ENCODING 192
SWIDTH 9 0
DWIDTH 12 0
BBX 12 16 -1 0
BITMAP
00C0
0040
0000
0010
0030
0070
0060
00A0
0160
0260
0460
07E0
0860
1060
30E0
79F0
ENDCHAR

STARTCHAR char193
ENCODING 193
SWIDTH 9 0
DWIDTH 12 0
BBX 13 16 -1 0
BITMAP
0030
0060
0000
0010
0030
0070
0060
00A0
0160
0260
0460
07E0
0860
1060
30E0
79F0
ENDCHAR

STARTCHAR char194
ENCODING 194
SWIDTH 9 0
DWIDTH 12 0
BBX 12 16 -1 0
BITMAP
00E0
0110
0000
0010
0030
0070
0060
00A0
0160
0260
0460
07E0
0860
1060
30E0
79F0
ENDCHAR

STARTCHAR char195
ENCODING 195
SWIDTH 9 0
DWIDTH 12 0
BBX 13 16 -1 0
BITMAP
01C8
0270
0000
0010
0030
0070
00E0
00A0
0160
0260
0460
07E0
0860
1060
30E0
79F0
ENDCHAR

STARTCHAR char196
ENCODING 196
SWIDTH 9 0
DWIDTH 12 0
BBX 15 16 -1 0
BITMAP
0046
00E6
0046
0010
0030
0030
0060
00E0
0160
0260
0460
07E0
08E0
10E0
30E0
F9F0
ENDCHAR

STARTCHAR char197
ENCODING 197
SWIDTH 9 0
DWIDTH 12 0
BBX 14 16 -1 0
BITMAP
003C
006C
0038
0010
0030
0070
0060
00E0
0160
0260
0460
07E0
08E0
10E0
30E0
78F0
ENDCHAR

STARTCHAR char198
ENCODING 198
SWIDTH 34 0
DWIDTH 17 0
BBX 19 13 -1 0
BITMAP
008000
00FFE0
007840
00B840
01B900
017300
027E00
047200
0FE200
08E000
10E180
20E300
F3FF00
ENDCHAR

STARTCHAR char199
ENCODING 199
SWIDTH 14 0
DWIDTH 13 0
BBX 12 17 2 -4
BITMAP
0010
0FF0
1820
3020
7000
E000
E000
C000
C000
C000
6040
7180
1E00
1000
3000
3000
2000
ENDCHAR

STARTCHAR char200
ENCODING 200
SWIDTH 4 0
DWIDTH 11 0
BBX 13 16 -1 0
BITMAP
01C0
00C0
0000
0000
0FF8
0718
0608
0E20
0E40
0FC0
1C40
1C40
1C00
1820
38E0
7FC0
ENDCHAR

STARTCHAR char201
ENCODING 201
SWIDTH 4 0
DWIDTH 11 0
BBX 13 16 -1 0
BITMAP
0060
00C0
0000
0000
0FF8
0718
0608
0E20
0E40
0FC0
1C40
1C40
1C00
1820
38E0
7FC0
ENDCHAR

STARTCHAR char202
ENCODING 202
SWIDTH 4 0
DWIDTH 11 0
BBX 13 16 -1 0
BITMAP
01E0
0320
0000
0000
0FF8
0718
0608
0E20
0E40
0FC0
1C40
1C40
1C00
1820
38E0
7FC0
ENDCHAR

STARTCHAR char203
ENCODING 203
SWIDTH 4 0
DWIDTH 11 0
BBX 13 16 -1 0
BITMAP
0330
0330
0330
0000
0FF8
0710
0610
0E40
0E40
0FC0
1C40
1C40
1800
1840
38C0
7FC0
ENDCHAR

STARTCHAR char204
ENCODING 204
SWIDTH 30 0
DWIDTH 6 0
BBX 8 16 1 0
BITMAP
1C
0C
00
00
1F
1C
1C
38
38
38
30
70
70
60
E0
30
ENDCHAR

STARTCHAR char205
ENCODING 205
SWIDTH 30 0
DWIDTH 6 0
BBX 8 16 1 0
BITMAP
06
0C
00
00
1F
1C
1C
38
38
38
30
70
70
60
E0
30
ENDCHAR

STARTCHAR char206
ENCODING 206
SWIDTH 30 0
DWIDTH 6 0
BBX 8 16 1 0
BITMAP
1E
32
00
00
1F
1C
1C
38
38
38
30
70
70
60
E0
30
ENDCHAR

STARTCHAR char207
ENCODING 207
SWIDTH 30 0
DWIDTH 6 0
BBX 8 16 1 0
BITMAP
33
33
33
00
1E
1C
18
18
38
38
30
70
70
60
E0
30
ENDCHAR

STARTCHAR char209
ENCODING 209
SWIDTH 14 0
DWIDTH 13 0
BBX 16 16 -1 0
BITMAP
00E8
0170
0000
0000
0F0F
0704
0B84
0B88
09C8
09C8
10E8
10F0
1070
2070
2020
F020
ENDCHAR

STARTCHAR char210
ENCODING 210
SWIDTH 19 0
DWIDTH 14 0
BBX 11 16 2 0
BITMAP
0700
0100
0000
0000
0FC0
1860
3060
7060
6060
E060
C0C0
C0C0
C080
C180
6300
3C00
ENDCHAR

STARTCHAR char211
ENCODING 211
SWIDTH 19 0
DWIDTH 14 0
BBX 11 16 2 0
BITMAP
0180
0100
0000
0000
0FC0
1860
3060
7060
6060
E060
C0C0
C0C0
C080
C180
6300
3C00
ENDCHAR

STARTCHAR char212
ENCODING 212
SWIDTH 19 0
DWIDTH 14 0
BBX 11 16 2 0
BITMAP
0380
0480
0000
0000
0FC0
1860
3060
7060
6060
E060
C0C0
C0C0
C080
C180
6300
3C00
ENDCHAR

STARTCHAR char213
ENCODING 213
SWIDTH 19 0
DWIDTH 14 0
BBX 11 16 2 0
BITMAP
0740
0980
0000
0000
0FC0
1860
3060
7060
6060
E060
C0C0
C0C0
C080
C180
6300
3C00
ENDCHAR

STARTCHAR char214
ENCODING 214
SWIDTH 19 0
DWIDTH 14 0
BBX 12 16 2 0
BITMAP
0630
0630
0000
0000
0FE0
1870
3070
7070
6070
E070
C0E0
C0E0
C0C0
C1C0
6380
3E00
ENDCHAR

STARTCHAR char216
ENCODING 216
SWIDTH 19 0
DWIDTH 14 0
BBX 13 14 1 -1
BITMAP
0008
07F0
0C30
1878
38B8
7138
7238
7670
7470
6860
70C0
7180
5F00
8000
ENDCHAR

STARTCHAR char217
ENCODING 217
SWIDTH 14 0
DWIDTH 13 0
BBX 14 16 2 0
BITMAP
0700
0300
0000
424C
3C30
3820
3020
7020
7040
7040
6040
E080
E080
C100
E300
3E00
ENDCHAR

STARTCHAR char218
ENCODING 218
SWIDTH 14 0
DWIDTH 13 0
BBX 14 16 2 0
BITMAP
0180
0300
0000
424C
3C30
3820
3020
7020
7040
7040
6040
E080
E080
C100
E300
3E00
ENDCHAR

STARTCHAR char219
ENCODING 219
SWIDTH 14 0
DWIDTH 13 0
BBX 14 16 2 0
BITMAP
0780
0C80
0000
424C
3C30
3820
3020
7020
7040
7040
6040
E080
E080
C100
E300
3E00
ENDCHAR

STARTCHAR char220
ENCODING 220
SWIDTH 14 0
DWIDTH 13 0
BBX 14 16 2 0
BITMAP
0660
0660
0000
465C
3A20
3820
3020
7020
7040
7040
6040
E080
E080
C100
E100
3E00
ENDCHAR

STARTCHAR char221
ENCODING 221
SWIDTH 39 0
DWIDTH 18 0
BBX 0 0 0 0
BITMAP
ENDCHAR

STARTCHAR char222
ENCODING 222
SWIDTH 39 0
DWIDTH 18 0
BBX 0 0 0 0
BITMAP
ENDCHAR

STARTCHAR char223
ENCODING 223
SWIDTH 50 0
DWIDTH 10 0
BBX 13 16 -3 -3
BITMAP
00F0
0198
0398
0310
0320
07E0
0630
0630
0E30
0C30
0C60
1F60
1B80
1800
F000
E000
ENDCHAR

STARTCHAR char224
ENCODING 224
SWIDTH 50 0
DWIDTH 10 0
BBX 8 12 1 0
BITMAP
18
0C
04
00
1F
27
67
C6
CE
CE
FF
6E
ENDCHAR

STARTCHAR char225
ENCODING 225
SWIDTH 50 0
DWIDTH 10 0
BBX 8 13 1 0
BITMAP
07
06
0C
00
00
1F
27
67
C6
CE
CE
FF
6E
ENDCHAR

STARTCHAR char226
ENCODING 226
SWIDTH 50 0
DWIDTH 10 0
BBX 8 12 1 0
BITMAP
0E
3E
22
00
1F
27
67
C6
CE
CE
FF
6E
ENDCHAR

STARTCHAR char227
ENCODING 227
SWIDTH 50 0
DWIDTH 10 0
BBX 8 12 1 0
BITMAP
1D
26
00
00
1F
27
67
C6
CE
CE
FF
6E
ENDCHAR

STARTCHAR char228
ENCODING 228
SWIDTH 50 0
DWIDTH 10 0
BBX 9 13 1 0
BITMAP
0D80
0D80
0080
0000
0000
1F00
2300
6300
C600
C600
CE00
FD00
E600
ENDCHAR

STARTCHAR char229
ENCODING 229
SWIDTH 50 0
DWIDTH 10 0
BBX 8 13 1 0
BITMAP
07
0F
06
00
00
3F
27
67
4E
CE
DE
FF
6E
ENDCHAR

STARTCHAR char230
ENCODING 230
SWIDTH 9 0
DWIDTH 12 0
BBX 12 8 0 0
BITMAP
1FE0
3330
0770
3FE0
6600
CE20
DF60
E780
ENDCHAR

STARTCHAR char231
ENCODING 231
SWIDTH 40 0
DWIDTH 8 0
BBX 8 12 0 -4
BITMAP
1F
33
30
60
60
62
72
3C
20
30
30
20
ENDCHAR

STARTCHAR char232
ENCODING 232
SWIDTH 40 0
DWIDTH 8 0
BBX 7 12 1 0
BITMAP
38
18
08
00
3E
66
64
F8
C0
C4
E4
78
ENDCHAR

STARTCHAR char233
ENCODING 233
SWIDTH 40 0
DWIDTH 8 0
BBX 7 13 1 0
BITMAP
06
0C
08
00
00
3E
66
64
F8
C0
C4
E4
78
ENDCHAR

STARTCHAR char234
ENCODING 234
SWIDTH 40 0
DWIDTH 8 0
BBX 7 12 1 0
BITMAP
1C
3C
24
00
3E
66
64
F8
C0
C4
E4
78
ENDCHAR

STARTCHAR char235
ENCODING 235
SWIDTH 40 0
DWIDTH 8 0
BBX 7 13 1 0
BITMAP
36
36
36
00
00
3C
66
64
F8
C0
C4
E4
78
ENDCHAR

STARTCHAR char236
ENCODING 236
SWIDTH 25 0
DWIDTH 5 0
BBX 5 12 1 0
BITMAP
70
30
10
08
70
70
70
60
E0
E0
D0
E0
ENDCHAR

STARTCHAR char237
ENCODING 237
SWIDTH 25 0
DWIDTH 5 0
BBX 6 13 1 0
BITMAP
0C
18
30
00
08
70
70
70
60
E0
E0
D0
E0
ENDCHAR

STARTCHAR char238
ENCODING 238
SWIDTH 25 0
DWIDTH 5 0
BBX 6 12 1 0
BITMAP
18
78
4C
08
30
30
30
30
60
60
70
60
ENDCHAR

STARTCHAR char239
ENCODING 239
SWIDTH 25 0
DWIDTH 5 0
BBX 6 13 1 0
BITMAP
6C
6C
6C
00
10
30
30
20
60
60
E0
D0
60
ENDCHAR

STARTCHAR char241
ENCODING 241
SWIDTH 50 0
DWIDTH 10 0
BBX 8 12 1 0
BITMAP
1D
22
00
10
F7
79
73
63
E2
E6
C7
C6
ENDCHAR

STARTCHAR char242
ENCODING 242
SWIDTH 45 0
DWIDTH 9 0
BBX 8 12 1 0
BITMAP
18
0C
04
00
3E
63
63
E3
C7
C6
CC
78
ENDCHAR

STARTCHAR char243
ENCODING 243
SWIDTH 45 0
DWIDTH 9 0
BBX 8 13 1 0
BITMAP
07
06
0C
00
00
3E
63
63
E3
C7
C6
CC
78
ENDCHAR

STARTCHAR char244
ENCODING 244
SWIDTH 45 0
DWIDTH 9 0
BBX 8 12 1 0
BITMAP
0E
3E
22
00
3E
63
63
E3
C7
C6
CC
78
ENDCHAR

STARTCHAR char245
ENCODING 245
SWIDTH 45 0
DWIDTH 9 0
BBX 8 12 1 0
BITMAP
1D
26
00
00
3E
63
63
E3
C7
C6
CC
78
ENDCHAR

STARTCHAR char246
ENCODING 246
SWIDTH 45 0
DWIDTH 9 0
BBX 9 13 1 0
BITMAP
1980
1980
0080
0000
0000
3F00
6300
6300
E700
C700
C600
CE00
7800
ENDCHAR

STARTCHAR char247
ENCODING 247
SWIDTH 50 0
DWIDTH 10 0
BBX 9 7 0 1
BITMAP
1800
1800
0000
FF80
0000
1800
1800
ENDCHAR

STARTCHAR char248
ENCODING 248
SWIDTH 45 0
DWIDTH 9 0
BBX 9 10 0 -1
BITMAP
0080
1F00
3B80
7580
7780
6B80
7300
6600
7C00
8000
ENDCHAR

STARTCHAR char249
ENCODING 249
SWIDTH 50 0
DWIDTH 10 0
BBX 9 12 1 0
BITMAP
1C00
0C00
0400
1200
7380
3300
6300
6700
6600
CE00
F700
E600
ENDCHAR

STARTCHAR char250
ENCODING 250
SWIDTH 50 0
DWIDTH 10 0
BBX 9 13 1 0
BITMAP
0300
0600
0400
0000
1200
7380
3300
6300
6700
6600
CE00
F700
E600
ENDCHAR

STARTCHAR char251
ENCODING 251
SWIDTH 50 0
DWIDTH 10 0
BBX 9 12 1 0
BITMAP
0E00
1A00
2200
1200
7380
3300
6300
6700
6600
CE00
F700
E600
ENDCHAR

STARTCHAR char252
ENCODING 252
SWIDTH 50 0
DWIDTH 10 0
BBX 9 13 1 0
BITMAP
1980
1980
0080
0000
1100
7380
6300
6700
6700
6600
DE00
FF80
C600
ENDCHAR

STARTCHAR char255
ENCODING 255
SWIDTH 40 0
DWIDTH 8 0
BBX 10 16 -2 -3
BITMAP
0640
06C0
0640
0000
0440
3CC0
0C40
0C40
0C80
0E80
0F00
0E00
0C00
0800
D800
6000
ENDCHAR
ENDFONT
